<svg xmlns="http://www.w3.org/2000/svg" viewBox="100 0 1440 320"><path fill="#273036" fill-opacity="0.8" d="M0,256L30,218.7C60,181,120,107,180,96C240,85,300,139,360,144C420,149,480,107,540,85.3C600,64,660,64,720,90.7C780,117,840,171,900,192C960,213,1020,203,1080,170.7C1140,139,1200,85,1260,85.3C1320,85,1380,139,1410,165.3L1440,192L1440,320L1410,320C1380,320,1320,320,1260,320C1200,320,1140,320,1080,320C1020,320,960,320,900,320C840,320,780,320,720,320C660,320,600,320,540,320C480,320,420,320,360,320C300,320,240,320,180,320C120,320,60,320,30,320L0,320Z"></path></svg>