<svg xmlns="http://www.w3.org/2000/svg" viewBox="0 0 1440 320"><path fill="#273036" fill-opacity="0.6" d="M0,160L30,181.3C60,203,120,245,180,229.3C240,213,300,139,360,101.3C420,64,480,64,540,90.7C600,117,660,171,720,186.7C780,203,840,181,900,154.7C960,128,1020,96,1080,106.7C1140,117,1200,171,1260,170.7C1320,171,1380,117,1410,90.7L1440,64L1440,320L1410,320C1380,320,1320,320,1260,320C1200,320,1140,320,1080,320C1020,320,960,320,900,320C840,320,780,320,720,320C660,320,600,320,540,320C480,320,420,320,360,320C300,320,240,320,180,320C120,320,60,320,30,320L0,320Z"></path></svg>