<svg xmlns="http://www.w3.org/2000/svg" viewBox="-160 -290 500 500">
  <path d="M 0 0 L 35 -100 L 45 -100 L 10 0 L 0 0 M 60 0 L 85 -100 L 95 -100 L 110 -42 L 110 -42 L 125 -100 L 135 -100 L 160 0 L 150 0 L 130 -90 L 115 -35 L 115 -35 L 105 -35 L 105 -35 L 90 -90 L 70 0 M -15 -100 L -25 -100 L -70 -50 L -25 0 L -15 0 L -60 -50 L -15 -100 M 175 0 L 185 0 L 230 -50 L 185 -100 L 175 -100 L 220 -50 L 175 0 M -70 -113 C 21 -325 298 -203 239 -7 M 230 -10 C 285 -211 14 -297 -61 -110 M 224 10 C 139 210 -128 91 -67 -90 L -75 -93 C -137 100 141 225 233 13" fill="#fff"/>
</svg>